<?xml version="1.0" encoding="UTF-8"?>
<svg width="1000px" height="450px" viewBox="0 0 1000 450" version="1.1" xmlns="http://www.w3.org/2000/svg" xmlns:xlink="http://www.w3.org/1999/xlink">
    <title>impls banner</title>
    <path d="M251.721285,27.3527452 L251.848798,27.5487256 L261.948739,44.0404798 L266.84871,44.5402299 L280.348631,30.0474763 C282.999524,27.2016265 288.34951,28.1133689 289.868187,31.7421397 L289.948575,31.9465267 L296.848534,50.4372814 L301.648506,51.8365817 L317.648412,40.3423288 C320.890498,38.083809 325.966492,40.1666088 326.712568,43.9368532 L326.748359,44.1404298 L329.94834,63.6306847 L334.348314,65.9295352 L352.348209,57.7336332 C355.984394,56.1620052 360.586388,59.1274369 360.554166,63.0249131 L360.54816,63.2308846 L359.848165,83.0209895 L363.648142,86.1194403 L382.84803,81.6216892 C386.779041,80.7376484 390.613472,84.5837337 389.890283,88.4165041 L389.847989,88.6181909 L385.348015,107.808596 L388.447997,111.606697 L408.247881,110.907046 C412.277167,110.80882 415.340645,115.247653 413.831518,118.910891 L413.747848,119.102949 L405.547896,137.093953 L407.847883,141.491754 L427.347768,144.690155 C431.276317,145.377311 433.372127,150.306607 431.266765,153.607224 L431.147746,153.785607 L419.647814,169.777611 L421.047805,174.575212 L439.547697,181.471764 C443.180403,182.845623 444.306809,188.266119 441.601908,191.016885 L441.447686,191.166917 L427.04777,204.66017 L427.547767,209.557721 L444.347669,219.952524 C447.779021,222.010318 447.750186,227.430523 445.015018,229.620176 L444.847666,229.747626 L428.047764,240.142429 L427.547767,245.03998 L441.947683,258.533233 C444.89312,261.182818 443.886316,266.530161 440.252279,268.048088 L440.047694,268.128436 L421.547803,275.024988 L420.147811,279.822589 L431.647743,295.814593 C433.907379,299.055078 431.920072,304.128564 428.056523,304.874272 L427.847766,304.910045 L408.34788,308.108446 L406.047893,312.506247 L414.247845,330.497251 C415.82025,334.131641 412.853353,338.731363 408.953951,338.699156 L408.747878,338.693153 L388.947994,337.993503 L385.848012,341.791604 L390.347986,361.081959 C391.232463,364.912802 387.384477,368.743645 383.549813,368.020785 L383.348027,367.978511 L364.148139,363.48076 L360.348162,366.57921 L361.048157,386.369315 C361.146433,390.298385 356.608826,393.45519 353.035362,391.950107 L352.848206,391.866567 L334.848311,383.670665 L330.448337,385.969515 L327.248356,405.45977 C326.56086,409.386378 321.629129,411.481154 318.32688,409.376831 L318.148409,409.257871 L302.148503,397.763618 L297.348531,399.162919 L290.448572,417.653673 C289.074034,421.284585 283.747256,422.410435 280.998635,419.70687 L280.848628,419.552724 L267.348707,405.15992 L262.448736,405.65967 L252.048797,422.451274 C249.989986,425.782942 244.567103,425.848269 242.376367,422.647255 L242.248854,422.451274 L231.848915,405.65967 L226.948944,405.15992 L213.449023,419.552724 C210.79813,422.496706 205.448145,421.394051 203.929468,417.852902 L203.84908,417.653673 L196.94912,399.162919 L192.149148,397.763618 L176.149242,409.257871 C172.907156,411.516391 167.831162,409.530065 167.085087,405.668424 L167.049296,405.45977 L163.849314,385.969515 L159.44934,383.670665 L141.449446,391.866567 C137.81326,393.438195 133.211266,390.472763 133.243489,386.575287 L133.249494,386.369315 L133.94949,366.57921 L130.149512,363.48076 L110.949625,367.978511 C107.115749,368.96107 103.185235,365.1141 103.908102,361.280226 L103.949666,361.081959 L108.449639,341.791604 L105.349658,337.993503 L85.5497738,338.693153 C81.6187624,338.79138 78.4603981,334.256014 79.9662243,330.684315 L80.0498061,330.497251 L88.249758,312.506247 L85.9497715,308.108446 L66.4498859,304.910045 C62.5200844,304.320866 60.4241902,299.293893 62.5329055,295.989909 L62.6499082,295.814593 L74.1498407,279.822589 L72.7498489,275.024988 L54.2499575,268.128436 C50.6172515,266.754577 49.4908449,261.430429 52.1957462,258.683167 L52.3499686,258.533233 L66.8498835,245.03998 L66.3498865,240.142429 L49.549985,229.747626 C46.2166713,227.689832 46.1513122,222.269627 49.3539078,220.079974 L49.549985,219.952524 L66.0498882,209.857571 L66.5498853,204.96002 L52.1499698,191.466767 C49.3027138,188.71905 50.3113029,183.369922 53.8507286,181.851963 L54.0499586,181.771614 L72.5498501,174.875062 L73.9498419,170.077461 L62.4499094,154.085457 C60.1902735,150.844972 62.177581,145.771486 66.0411299,145.025778 L66.2498871,144.990005 L85.7497727,141.791604 L88.0497592,137.393803 L79.8498073,119.402799 C78.2774027,115.768409 81.2442997,111.265221 85.1437018,111.205887 L85.349775,111.206897 L105.149659,111.906547 L108.249641,108.108446 L103.749667,88.918041 C102.865189,85.0871978 106.713175,81.1598214 110.547839,81.8793528 L110.749626,81.9215392 L129.949513,86.4192904 L133.749491,83.3208396 L133.049495,63.5307346 C132.95122,59.6016647 137.488827,56.4448602 141.062291,57.9499428 L141.249447,58.0334833 L159.249341,66.2293853 L163.649316,63.9305347 L166.849297,44.4402799 C167.438767,40.5124192 172.468224,38.4175602 175.773841,40.525234 L175.949243,40.6421789 L191.94915,52.1364318 L196.749121,50.7371314 L203.649081,32.2463768 C205.023618,28.615465 210.350397,27.4896147 213.099017,30.1931801 L213.249025,30.3473263 L226.748945,44.84008 L231.648917,44.3403298 L242.048856,27.5487256 C244.107667,24.2170581 249.53055,24.1517313 251.721285,27.3527452 Z M271.848681,81.2218891 L254.048785,99.0129935 C250.219717,102.840171 244.077141,102.909756 240.163945,99.2217486 L239.948868,99.0129935 L222.148972,81.2218891 C177.302236,88.8410795 139.414168,117.032084 118.47879,155.708836 L117.849584,156.884058 L129.249517,179.272864 C131.705643,184.084493 129.818304,189.957334 125.10475,192.531448 L124.849543,192.666167 L102.449683,204.06047 C101.449683,210.857071 100.949683,217.753623 100.949683,224.850075 C100.949683,264.034483 116.435173,299.594333 141.875479,325.807722 L142.649439,326.5992 L167.449293,322.701149 C172.757737,321.816846 177.776265,325.37571 178.799863,330.719044 L178.849226,330.997001 L182.749204,355.884558 C202.14909,365.47976 224.048961,370.877061 247.148826,370.877061 C269.887755,370.877061 291.463898,365.647108 310.637252,356.331254 L311.548448,355.884558 L315.448425,330.997001 C316.235087,325.689655 321.179586,321.928647 326.573711,322.660072 L326.848358,322.701149 L351.648213,326.5992 C377.148063,300.312344 392.94797,264.430285 393.04797,224.850075 C393.04797,218.22672 392.612417,211.7775 391.741311,205.421152 L391.547979,204.06047 L369.14811,192.666167 C364.235858,190.211254 362.315771,184.379759 364.620613,179.53162 L364.748136,179.272864 L376.148069,156.884058 C355.348191,117.603698 317.148415,89.017991 271.848681,81.2218891 Z M147.249412,341.491754 C143.349435,346.889055 144.549428,354.385307 149.949396,358.283358 C155.349364,362.181409 162.84932,360.982009 166.749297,355.584708 C170.649275,350.287356 169.449282,342.691154 164.049313,338.793103 C158.649345,334.895052 151.149389,336.094453 147.249412,341.491754 Z M329.748341,338.793103 C324.348373,342.691154 323.14838,350.187406 327.048357,355.584708 C330.948334,360.982009 338.44829,362.181409 343.848258,358.283358 C349.248227,354.385307 350.44822,346.889055 346.548243,341.491754 C342.648265,336.194403 335.148309,334.995002 329.748341,338.793103 Z M807.19,192 C826.65,192 836.31,206.42 836.31,229.1 C836.31,255 823.99,270.4 799.49,270.4 C795.43,270.4 791.23,269.84 787.59,269 L787.59,286.78 L800.89,290 L800.89,301.2 L755.67,301.2 L755.67,290 L766.59,286.78 L766.59,208.8 L755.39,205.3 L755.39,194.1 L785.21,193.4 L786.47,201.24 C786.47,201.24 795.99,192 807.19,192 Z M262.48,256.17 C271.83,256.17 276.59,261.78 276.59,271.47 C276.59,281.33 269.62,286.94 261.97,286.94 C252.62,286.94 247.69,281.33 247.69,271.47 C247.69,261.78 254.83,256.17 262.48,256.17 Z M313.75,256.17 C323.1,256.17 328.03,261.78 328.03,271.47 C328.03,281.33 320.89,286.94 313.24,286.94 C303.89,286.94 299.13,281.33 299.13,271.47 C299.13,261.78 306.1,256.17 313.75,256.17 Z M239.6,164.88 L239.6,201.43 L223.79,201.43 L219.54,185.28 L203.39,185.28 L203.39,265.18 L219.54,270.28 L219.54,284.73 L160.89,284.73 L160.89,270.28 L177.04,265.18 L177.04,185.28 L160.89,185.28 L156.64,201.43 L141,201.43 L141,164.88 L239.6,164.88 Z M924.09,192 C936.69,192 950.13,196.2 950.13,196.2 L949.57,217.2 L937.67,217.2 L935.57,208.8 C935.57,208.8 931.51,207.4 925.91,207.4 C919.89,207.4 916.25,209.92 916.25,214.54 C916.25,225.88 953.63,220.98 953.63,245.2 C953.63,261.3 940.61,270.4 921.43,270.4 C908.13,270.4 895.67,267.32 895.67,267.32 L895.67,244.5 L908.27,244.5 L909.39,253.6 C909.39,253.6 914.29,255 921.15,255 C928.85,255 932.63,252.62 932.63,248.14 C932.63,236.66 895.25,240.86 895.25,215.94 C895.25,198.44 909.25,192 924.09,192 Z M718.01,192 C732.71,192 739.57,201.52 739.57,217.2 L739.57,254.3 L749.09,257.8 L749.09,269 L711.15,269 L711.15,257.8 L718.57,254.3 L718.57,220.98 C718.57,213.28 716.33,209.5 710.45,209.5 C701.35,209.5 694.91,216.78 694.91,216.78 L694.91,254.3 L702.19,257.8 L702.19,269 L666.63,269 L666.63,257.8 L673.91,254.3 L673.91,220.98 C673.91,213.28 671.95,209.5 665.93,209.5 C656.83,209.5 650.25,216.78 650.25,216.78 L650.25,254.3 L657.67,257.8 L657.67,269 L618.47,269 L618.47,257.8 L629.25,254.3 L629.25,208.8 L618.61,205.3 L618.61,194.1 L647.87,193.4 L648.85,203.34 C648.85,203.34 661.03,192 673.35,192 C683.29,192 689.45,196.62 692.67,204.04 C695.05,201.66 705.55,192 718.01,192 Z M877.05,160.5 L877.05,254.3 L889.65,257.8 L889.65,269 L844.71,269 L844.71,257.8 L855.91,254.3 L855.91,175.62 L844.71,172.82 L844.71,161.62 L877.05,160.5 Z M599.57,193.4 L599.57,254.3 L609.37,257.8 L609.37,269 L567.37,269 L567.37,257.8 L578.57,254.3 L578.57,208.8 L567.37,205.3 L567.37,194.1 L599.57,193.4 Z M800.61,208.8 C791.51,208.8 787.59,216.5 787.59,216.5 L787.59,252.2 C789.83,253.18 793.19,254.3 798.51,254.3 C810.55,254.3 814.61,245.9 814.61,231.62 C814.61,217.48 810.83,208.8 800.61,208.8 Z M319.53,154 C336.53,154 353.53,160.29 353.53,180.35 C353.53,206.53 322.93,216.05 322.93,231.86 C322.93,235.94 323.27,241.72 323.27,241.72 L300.66,242.74 C300.66,242.74 299.13,231.69 299.13,226.08 C299.13,209.59 327.86,200.75 327.86,185.11 C327.86,177.46 322.59,173.89 312.56,173.89 C305.25,173.89 297.43,175.76 297.43,175.76 L294.2,158.08 C294.2,158.08 308.31,154 319.53,154 Z M262.48,205 C271.83,205 276.59,210.61 276.59,220.47 C276.59,230.16 269.62,235.77 261.97,235.77 C252.62,235.77 247.69,230.16 247.69,220.47 C247.69,210.61 254.83,205 262.48,205 Z M90.0497474,173.875562 C87.9497597,180.172414 91.4497392,186.969015 97.7497023,188.968016 C104.049665,191.066967 110.749626,187.568716 112.849614,181.271864 C114.949601,174.975012 111.449622,168.278361 105.149659,166.17941 C98.8496958,164.08046 92.1497351,167.578711 90.0497474,173.875562 Z M388.747995,166.17941 C382.448032,168.278361 379.048052,174.975012 381.04804,181.271864 C383.048028,187.568716 389.847989,190.967016 396.147952,188.968016 C402.447915,186.969015 405.847895,180.172414 403.847906,173.875562 C401.847918,167.578711 395.047958,164.18041 388.747995,166.17941 Z M588.09,157.7 C595.37,157.7 599.85,161.48 599.85,170.3 C599.85,178.56 593.83,183.04 588.09,183.04 C580.53,183.04 576.05,178.56 576.05,170.3 C576.05,162.32 581.79,157.7 588.09,157.7 Z M246.948827,59.9325337 C240.348866,59.9325337 234.948897,65.3298351 234.948897,71.9265367 C234.948897,78.5232384 240.348866,83.9205397 246.948827,83.9205397 C253.548788,83.9205397 258.948756,78.5232384 258.948756,71.9265367 C258.948756,65.3298351 253.548788,59.9325337 246.948827,59.9325337 Z" id="Shape" fill="#000000" fill-rule="nonzero"></path>
</svg>