<?xml version="1.0" encoding="UTF-8"?>
<svg width="1400px" height="450px" viewBox="0 0 1400 450" version="1.1" xmlns="http://www.w3.org/2000/svg" xmlns:xlink="http://www.w3.org/1999/xlink">
    <title>impls banner</title>
    <path d="M451.721285,27.3527452 L451.848798,27.5487256 L461.948739,44.0404798 L466.84871,44.5402299 L480.348631,30.0474763 C482.999524,27.2016265 488.34951,28.1133689 489.868187,31.7421397 L489.948575,31.9465267 L496.848534,50.4372814 L501.648506,51.8365817 L517.648412,40.3423288 C520.890498,38.083809 525.966492,40.1666088 526.712568,43.9368532 L526.748359,44.1404298 L529.94834,63.6306847 L534.348314,65.9295352 L552.348209,57.7336332 C555.984394,56.1620052 560.586388,59.1274369 560.554166,63.0249131 L560.54816,63.2308846 L559.848165,83.0209895 L563.648142,86.1194403 L582.84803,81.6216892 C586.779041,80.7376484 590.613472,84.5837337 589.890283,88.4165041 L589.847989,88.6181909 L585.348015,107.808596 L588.447997,111.606697 L608.247881,110.907046 C612.277167,110.80882 615.340645,115.247653 613.831518,118.910891 L613.747848,119.102949 L605.547896,137.093953 L607.847883,141.491754 L627.347768,144.690155 C631.276317,145.377311 633.372127,150.306607 631.266765,153.607224 L631.147746,153.785607 L619.647814,169.777611 L621.047805,174.575212 L639.547697,181.471764 C643.180403,182.845623 644.306809,188.266119 641.601908,191.016885 L641.447686,191.166917 L627.04777,204.66017 L627.547767,209.557721 L644.347669,219.952524 C647.779021,222.010318 647.750186,227.430523 645.015018,229.620176 L644.847666,229.747626 L628.047764,240.142429 L627.547767,245.03998 L641.947683,258.533233 C644.89312,261.182818 643.886316,266.530161 640.252279,268.048088 L640.047694,268.128436 L621.547803,275.024988 L620.147811,279.822589 L631.647743,295.814593 C633.907379,299.055078 631.920072,304.128564 628.056523,304.874272 L627.847766,304.910045 L608.34788,308.108446 L606.047893,312.506247 L614.247845,330.497251 C615.82025,334.131641 612.853353,338.731363 608.953951,338.699156 L608.747878,338.693153 L588.947994,337.993503 L585.848012,341.791604 L590.347986,361.081959 C591.232463,364.912802 587.384477,368.743645 583.549813,368.020785 L583.348027,367.978511 L564.148139,363.48076 L560.348162,366.57921 L561.048157,386.369315 C561.146433,390.298385 556.608826,393.45519 553.035362,391.950107 L552.848206,391.866567 L534.848311,383.670665 L530.448337,385.969515 L527.248356,405.45977 C526.56086,409.386378 521.629129,411.481154 518.32688,409.376831 L518.148409,409.257871 L502.148503,397.763618 L497.348531,399.162919 L490.448572,417.653673 C489.074034,421.284585 483.747256,422.410435 480.998635,419.70687 L480.848628,419.552724 L467.348707,405.15992 L462.448736,405.65967 L452.048797,422.451274 C449.989986,425.782942 444.567103,425.848269 442.376367,422.647255 L442.248854,422.451274 L431.848915,405.65967 L426.948944,405.15992 L413.449023,419.552724 C410.79813,422.496706 405.448145,421.394051 403.929468,417.852902 L403.84908,417.653673 L396.94912,399.162919 L392.149148,397.763618 L376.149242,409.257871 C372.907156,411.516391 367.831162,409.530065 367.085087,405.668424 L367.049296,405.45977 L363.849314,385.969515 L359.44934,383.670665 L341.449446,391.866567 C337.81326,393.438195 333.211266,390.472763 333.243489,386.575287 L333.249494,386.369315 L333.94949,366.57921 L330.149512,363.48076 L310.949625,367.978511 C307.115749,368.96107 303.185235,365.1141 303.908102,361.280226 L303.949666,361.081959 L308.449639,341.791604 L305.349658,337.993503 L285.549774,338.693153 C281.618762,338.79138 278.460398,334.256014 279.966224,330.684315 L280.049806,330.497251 L288.249758,312.506247 L285.949771,308.108446 L266.449886,304.910045 C262.520084,304.320866 260.42419,299.293893 262.532906,295.989909 L262.649908,295.814593 L274.149841,279.822589 L272.749849,275.024988 L254.249957,268.128436 C250.617252,266.754577 249.490845,261.430429 252.195746,258.683167 L252.349969,258.533233 L266.849884,245.03998 L266.349886,240.142429 L249.549985,229.747626 C246.216671,227.689832 246.151312,222.269627 249.353908,220.079974 L249.549985,219.952524 L266.049888,209.857571 L266.549885,204.96002 L252.14997,191.466767 C249.302714,188.71905 250.311303,183.369922 253.850729,181.851963 L254.049959,181.771614 L272.54985,174.875062 L273.949842,170.077461 L262.449909,154.085457 C260.190273,150.844972 262.177581,145.771486 266.04113,145.025778 L266.249887,144.990005 L285.749773,141.791604 L288.049759,137.393803 L279.849807,119.402799 C278.277403,115.768409 281.2443,111.265221 285.143702,111.205887 L285.349775,111.206897 L305.149659,111.906547 L308.249641,108.108446 L303.749667,88.918041 C302.865189,85.0871978 306.713175,81.1598214 310.547839,81.8793528 L310.749626,81.9215392 L329.949513,86.4192904 L333.749491,83.3208396 L333.049495,63.5307346 C332.95122,59.6016647 337.488827,56.4448602 341.062291,57.9499428 L341.249447,58.0334833 L359.249341,66.2293853 L363.649316,63.9305347 L366.849297,44.4402799 C367.438767,40.5124192 372.468224,38.4175602 375.773841,40.525234 L375.949243,40.6421789 L391.94915,52.1364318 L396.749121,50.7371314 L403.649081,32.2463768 C405.023618,28.615465 410.350397,27.4896147 413.099017,30.1931801 L413.249025,30.3473263 L426.748945,44.84008 L431.648917,44.3403298 L442.048856,27.5487256 C444.107667,24.2170581 449.53055,24.1517313 451.721285,27.3527452 Z M471.848681,81.2218891 L454.048785,99.0129935 C450.219717,102.840171 444.077141,102.909756 440.163945,99.2217486 L439.948868,99.0129935 L422.148972,81.2218891 C377.302236,88.8410795 339.414168,117.032084 318.47879,155.708836 L317.849584,156.884058 L329.249517,179.272864 C331.705643,184.084493 329.818304,189.957334 325.10475,192.531448 L324.849543,192.666167 L302.449683,204.06047 C301.449683,210.857071 300.949683,217.753623 300.949683,224.850075 C300.949683,264.034483 316.435173,299.594333 341.875479,325.807722 L342.649439,326.5992 L367.449293,322.701149 C372.757737,321.816846 377.776265,325.37571 378.799863,330.719044 L378.849226,330.997001 L382.749204,355.884558 C402.14909,365.47976 424.048961,370.877061 447.148826,370.877061 C469.887755,370.877061 491.463898,365.647108 510.637252,356.331254 L511.548448,355.884558 L515.448425,330.997001 C516.235087,325.689655 521.179586,321.928647 526.573711,322.660072 L526.848358,322.701149 L551.648213,326.5992 C577.148063,300.312344 592.94797,264.430285 593.04797,224.850075 C593.04797,218.22672 592.612417,211.7775 591.741311,205.421152 L591.547979,204.06047 L569.14811,192.666167 C564.235858,190.211254 562.315771,184.379759 564.620613,179.53162 L564.748136,179.272864 L576.148069,156.884058 C555.348191,117.603698 517.148415,89.017991 471.848681,81.2218891 Z M347.249412,341.491754 C343.349435,346.889055 344.549428,354.385307 349.949396,358.283358 C355.349364,362.181409 362.84932,360.982009 366.749297,355.584708 C370.649275,350.287356 369.449282,342.691154 364.049313,338.793103 C358.649345,334.895052 351.149389,336.094453 347.249412,341.491754 Z M529.748341,338.793103 C524.348373,342.691154 523.14838,350.187406 527.048357,355.584708 C530.948334,360.982009 538.44829,362.181409 543.848258,358.283358 C549.248227,354.385307 550.44822,346.889055 546.548243,341.491754 C542.648265,336.194403 535.148309,334.995002 529.748341,338.793103 Z M1007.19,192 C1026.65,192 1036.31,206.42 1036.31,229.1 C1036.31,255 1023.99,270.4 999.49,270.4 C995.43,270.4 991.23,269.84 987.59,269 L987.59,286.78 L1000.89,290 L1000.89,301.2 L955.67,301.2 L955.67,290 L966.59,286.78 L966.59,208.8 L955.39,205.3 L955.39,194.1 L985.21,193.4 L986.47,201.24 C986.47,201.24 995.99,192 1007.19,192 Z M462.48,256.17 C471.83,256.17 476.59,261.78 476.59,271.47 C476.59,281.33 469.62,286.94 461.97,286.94 C452.62,286.94 447.69,281.33 447.69,271.47 C447.69,261.78 454.83,256.17 462.48,256.17 Z M513.75,256.17 C523.1,256.17 528.03,261.78 528.03,271.47 C528.03,281.33 520.89,286.94 513.24,286.94 C503.89,286.94 499.13,281.33 499.13,271.47 C499.13,261.78 506.1,256.17 513.75,256.17 Z M439.6,164.88 L439.6,201.43 L423.79,201.43 L419.54,185.28 L403.39,185.28 L403.39,265.18 L419.54,270.28 L419.54,284.73 L360.89,284.73 L360.89,270.28 L377.04,265.18 L377.04,185.28 L360.89,185.28 L356.64,201.43 L341,201.43 L341,164.88 L439.6,164.88 Z M1124.09,192 C1136.69,192 1150.13,196.2 1150.13,196.2 L1149.57,217.2 L1137.67,217.2 L1135.57,208.8 C1135.57,208.8 1131.51,207.4 1125.91,207.4 C1119.89,207.4 1116.25,209.92 1116.25,214.54 C1116.25,225.88 1153.63,220.98 1153.63,245.2 C1153.63,261.3 1140.61,270.4 1121.43,270.4 C1108.13,270.4 1095.67,267.32 1095.67,267.32 L1095.67,244.5 L1108.27,244.5 L1109.39,253.6 C1109.39,253.6 1114.29,255 1121.15,255 C1128.85,255 1132.63,252.62 1132.63,248.14 C1132.63,236.66 1095.25,240.86 1095.25,215.94 C1095.25,198.44 1109.25,192 1124.09,192 Z M918.01,192 C932.71,192 939.57,201.52 939.57,217.2 L939.57,254.3 L949.09,257.8 L949.09,269 L911.15,269 L911.15,257.8 L918.57,254.3 L918.57,220.98 C918.57,213.28 916.33,209.5 910.45,209.5 C901.35,209.5 894.91,216.78 894.91,216.78 L894.91,254.3 L902.19,257.8 L902.19,269 L866.63,269 L866.63,257.8 L873.91,254.3 L873.91,220.98 C873.91,213.28 871.95,209.5 865.93,209.5 C856.83,209.5 850.25,216.78 850.25,216.78 L850.25,254.3 L857.67,257.8 L857.67,269 L818.47,269 L818.47,257.8 L829.25,254.3 L829.25,208.8 L818.61,205.3 L818.61,194.1 L847.87,193.4 L848.85,203.34 C848.85,203.34 861.03,192 873.35,192 C883.29,192 889.45,196.62 892.67,204.04 C895.05,201.66 905.55,192 918.01,192 Z M1077.05,160.5 L1077.05,254.3 L1089.65,257.8 L1089.65,269 L1044.71,269 L1044.71,257.8 L1055.91,254.3 L1055.91,175.62 L1044.71,172.82 L1044.71,161.62 L1077.05,160.5 Z M799.57,193.4 L799.57,254.3 L809.37,257.8 L809.37,269 L767.37,269 L767.37,257.8 L778.57,254.3 L778.57,208.8 L767.37,205.3 L767.37,194.1 L799.57,193.4 Z M1000.61,208.8 C991.51,208.8 987.59,216.5 987.59,216.5 L987.59,252.2 C989.83,253.18 993.19,254.3 998.51,254.3 C1010.55,254.3 1014.61,245.9 1014.61,231.62 C1014.61,217.48 1010.83,208.8 1000.61,208.8 Z M519.53,154 C536.53,154 553.53,160.29 553.53,180.35 C553.53,206.53 522.93,216.05 522.93,231.86 C522.93,235.94 523.27,241.72 523.27,241.72 L500.66,242.74 C500.66,242.74 499.13,231.69 499.13,226.08 C499.13,209.59 527.86,200.75 527.86,185.11 C527.86,177.46 522.59,173.89 512.56,173.89 C505.25,173.89 497.43,175.76 497.43,175.76 L494.2,158.08 C494.2,158.08 508.31,154 519.53,154 Z M462.48,205 C471.83,205 476.59,210.61 476.59,220.47 C476.59,230.16 469.62,235.77 461.97,235.77 C452.62,235.77 447.69,230.16 447.69,220.47 C447.69,210.61 454.83,205 462.48,205 Z M290.049747,173.875562 C287.94976,180.172414 291.449739,186.969015 297.749702,188.968016 C304.049665,191.066967 310.749626,187.568716 312.849614,181.271864 C314.949601,174.975012 311.449622,168.278361 305.149659,166.17941 C298.849696,164.08046 292.149735,167.578711 290.049747,173.875562 Z M588.747995,166.17941 C582.448032,168.278361 579.048052,174.975012 581.04804,181.271864 C583.048028,187.568716 589.847989,190.967016 596.147952,188.968016 C602.447915,186.969015 605.847895,180.172414 603.847906,173.875562 C601.847918,167.578711 595.047958,164.18041 588.747995,166.17941 Z M788.09,157.7 C795.37,157.7 799.85,161.48 799.85,170.3 C799.85,178.56 793.83,183.04 788.09,183.04 C780.53,183.04 776.05,178.56 776.05,170.3 C776.05,162.32 781.79,157.7 788.09,157.7 Z M446.948827,59.9325337 C440.348866,59.9325337 434.948897,65.3298351 434.948897,71.9265367 C434.948897,78.5232384 440.348866,83.9205397 446.948827,83.9205397 C453.548788,83.9205397 458.948756,78.5232384 458.948756,71.9265367 C458.948756,65.3298351 453.548788,59.9325337 446.948827,59.9325337 Z" fill="#000000" fill-rule="nonzero"></path>
</svg>