<?xml version="1.0" encoding="UTF-8"?>
<svg width="1400px" height="450px" viewBox="0 0 1400 450" version="1.1" xmlns="http://www.w3.org/2000/svg" xmlns:xlink="http://www.w3.org/1999/xlink">
    <title>does_impl</title>
    <path d="M357.721285,27.3527452 L357.848798,27.5487256 L367.948739,44.0404798 L372.84871,44.5402299 L386.348631,30.0474763 C388.999524,27.2016265 394.34951,28.1133689 395.868187,31.7421397 L395.948575,31.9465267 L402.848534,50.4372814 L407.648506,51.8365817 L423.648412,40.3423288 C426.890498,38.083809 431.966492,40.1666088 432.712568,43.9368532 L432.748359,44.1404298 L435.94834,63.6306847 L440.348314,65.9295352 L458.348209,57.7336332 C461.984394,56.1620052 466.586388,59.1274369 466.554166,63.0249131 L466.54816,63.2308846 L465.848165,83.0209895 L469.648142,86.1194403 L488.84803,81.6216892 C492.779041,80.7376484 496.613472,84.5837337 495.890283,88.4165041 L495.847989,88.6181909 L491.348015,107.808596 L494.447997,111.606697 L514.247881,110.907046 C518.277167,110.80882 521.340645,115.247653 519.831518,118.910891 L519.747848,119.102949 L511.547896,137.093953 L513.847883,141.491754 L533.347768,144.690155 C537.276317,145.377311 539.372127,150.306607 537.266765,153.607224 L537.147746,153.785607 L525.647814,169.777611 L527.047805,174.575212 L545.547697,181.471764 C549.180403,182.845623 550.306809,188.266119 547.601908,191.016885 L547.447686,191.166917 L533.04777,204.66017 L533.547767,209.557721 L550.347669,219.952524 C553.779021,222.010318 553.750186,227.430523 551.015018,229.620176 L550.847666,229.747626 L534.047764,240.142429 L533.547767,245.03998 L547.947683,258.533233 C550.89312,261.182818 549.886316,266.530161 546.252279,268.048088 L546.047694,268.128436 L527.547803,275.024988 L526.147811,279.822589 L537.647743,295.814593 C539.907379,299.055078 537.920072,304.128564 534.056523,304.874272 L533.847766,304.910045 L514.34788,308.108446 L512.047893,312.506247 L520.247845,330.497251 C521.82025,334.131641 518.853353,338.731363 514.953951,338.699156 L514.747878,338.693153 L494.947994,337.993503 L491.848012,341.791604 L496.347986,361.081959 C497.232463,364.912802 493.384477,368.743645 489.549813,368.020785 L489.348027,367.978511 L470.148139,363.48076 L466.348162,366.57921 L467.048157,386.369315 C467.146433,390.298385 462.608826,393.45519 459.035362,391.950107 L458.848206,391.866567 L440.848311,383.670665 L436.448337,385.969515 L433.248356,405.45977 C432.56086,409.386378 427.629129,411.481154 424.32688,409.376831 L424.148409,409.257871 L408.148503,397.763618 L403.348531,399.162919 L396.448572,417.653673 C395.074034,421.284585 389.747256,422.410435 386.998635,419.70687 L386.848628,419.552724 L373.348707,405.15992 L368.448736,405.65967 L358.048797,422.451274 C355.989986,425.782942 350.567103,425.848269 348.376367,422.647255 L348.248854,422.451274 L337.848915,405.65967 L332.948944,405.15992 L319.449023,419.552724 C316.79813,422.496706 311.448145,421.394051 309.929468,417.852902 L309.84908,417.653673 L302.94912,399.162919 L298.149148,397.763618 L282.149242,409.257871 C278.907156,411.516391 273.831162,409.530065 273.085087,405.668424 L273.049296,405.45977 L269.849314,385.969515 L265.44934,383.670665 L247.449446,391.866567 C243.81326,393.438195 239.211266,390.472763 239.243489,386.575287 L239.249494,386.369315 L239.94949,366.57921 L236.149512,363.48076 L216.949625,367.978511 C213.115749,368.96107 209.185235,365.1141 209.908102,361.280226 L209.949666,361.081959 L214.449639,341.791604 L211.349658,337.993503 L191.549774,338.693153 C187.618762,338.79138 184.460398,334.256014 185.966224,330.684315 L186.049806,330.497251 L194.249758,312.506247 L191.949771,308.108446 L172.449886,304.910045 C168.520084,304.320866 166.42419,299.293893 168.532906,295.989909 L168.649908,295.814593 L180.149841,279.822589 L178.749849,275.024988 L160.249957,268.128436 C156.617252,266.754577 155.490845,261.430429 158.195746,258.683167 L158.349969,258.533233 L172.849884,245.03998 L172.349886,240.142429 L155.549985,229.747626 C152.216671,227.689832 152.151312,222.269627 155.353908,220.079974 L155.549985,219.952524 L172.049888,209.857571 L172.549885,204.96002 L158.14997,191.466767 C155.302714,188.71905 156.311303,183.369922 159.850729,181.851963 L160.049959,181.771614 L178.54985,174.875062 L179.949842,170.077461 L168.449909,154.085457 C166.190273,150.844972 168.177581,145.771486 172.04113,145.025778 L172.249887,144.990005 L191.749773,141.791604 L194.049759,137.393803 L185.849807,119.402799 C184.277403,115.768409 187.2443,111.265221 191.143702,111.205887 L191.349775,111.206897 L211.149659,111.906547 L214.249641,108.108446 L209.749667,88.918041 C208.865189,85.0871978 212.713175,81.1598214 216.547839,81.8793528 L216.749626,81.9215392 L235.949513,86.4192904 L239.749491,83.3208396 L239.049495,63.5307346 C238.95122,59.6016647 243.488827,56.4448602 247.062291,57.9499428 L247.249447,58.0334833 L265.249341,66.2293853 L269.649316,63.9305347 L272.849297,44.4402799 C273.438767,40.5124192 278.468224,38.4175602 281.773841,40.525234 L281.949243,40.6421789 L297.94915,52.1364318 L302.749121,50.7371314 L309.649081,32.2463768 C311.023618,28.615465 316.350397,27.4896147 319.099017,30.1931801 L319.249025,30.3473263 L332.748945,44.84008 L337.648917,44.3403298 L348.048856,27.5487256 C350.107667,24.2170581 355.53055,24.1517313 357.721285,27.3527452 Z M377.848681,81.2218891 L360.048785,99.0129935 C356.219717,102.840171 350.077141,102.909756 346.163945,99.2217486 L345.948868,99.0129935 L328.148972,81.2218891 C283.302236,88.8410795 245.414168,117.032084 224.47879,155.708836 L223.849584,156.884058 L235.249517,179.272864 C237.705643,184.084493 235.818304,189.957334 231.10475,192.531448 L230.849543,192.666167 L208.449683,204.06047 C207.449683,210.857071 206.949683,217.753623 206.949683,224.850075 C206.949683,264.034483 222.435173,299.594333 247.875479,325.807722 L248.649439,326.5992 L273.449293,322.701149 C278.757737,321.816846 283.776265,325.37571 284.799863,330.719044 L284.849226,330.997001 L288.749204,355.884558 C308.14909,365.47976 330.048961,370.877061 353.148826,370.877061 C375.887755,370.877061 397.463898,365.647108 416.637252,356.331254 L417.548448,355.884558 L421.448425,330.997001 C422.235087,325.689655 427.179586,321.928647 432.573711,322.660072 L432.848358,322.701149 L457.648213,326.5992 C483.148063,300.312344 498.94797,264.430285 499.04797,224.850075 C499.04797,218.22672 498.612417,211.7775 497.741311,205.421152 L497.547979,204.06047 L475.14811,192.666167 C470.235858,190.211254 468.315771,184.379759 470.620613,179.53162 L470.748136,179.272864 L482.148069,156.884058 C461.348191,117.603698 423.148415,89.017991 377.848681,81.2218891 Z M253.249412,341.491754 C249.349435,346.889055 250.549428,354.385307 255.949396,358.283358 C261.349364,362.181409 268.84932,360.982009 272.749297,355.584708 C276.649275,350.287356 275.449282,342.691154 270.049313,338.793103 C264.649345,334.895052 257.149389,336.094453 253.249412,341.491754 Z M435.748341,338.793103 C430.348373,342.691154 429.14838,350.187406 433.048357,355.584708 C436.948334,360.982009 444.44829,362.181409 449.848258,358.283358 C455.248227,354.385307 456.44822,346.889055 452.548243,341.491754 C448.648265,336.194403 441.148309,334.995002 435.748341,338.793103 Z M1176.36,203 C1193.04,203 1201.32,215.36 1201.32,234.8 C1201.32,257 1190.76,270.2 1169.76,270.2 C1166.28,270.2 1162.68,269.72 1159.56,269 L1159.56,284.24 L1170.96,287 L1170.96,296.6 L1132.2,296.6 L1132.2,287 L1141.56,284.24 L1141.56,217.4 L1131.96,214.4 L1131.96,204.8 L1157.52,204.2 L1158.6,210.92 C1158.6,210.92 1166.76,203 1176.36,203 Z M966.84,278.6 L966.84,290.6 L906.84,290.6 L906.84,278.6 L966.84,278.6 Z M368.48,256.17 C377.83,256.17 382.59,261.78 382.59,271.47 C382.59,281.33 375.62,286.94 367.97,286.94 C358.62,286.94 353.69,281.33 353.69,271.47 C353.69,261.78 360.83,256.17 368.48,256.17 Z M419.75,256.17 C429.1,256.17 434.03,261.78 434.03,271.47 C434.03,281.33 426.89,286.94 419.24,286.94 C409.89,286.94 405.13,281.33 405.13,271.47 C405.13,261.78 412.1,256.17 419.75,256.17 Z M345.6,164.88 L345.6,201.43 L329.79,201.43 L325.54,185.28 L309.39,185.28 L309.39,265.18 L325.54,270.28 L325.54,284.73 L266.89,284.73 L266.89,270.28 L283.04,265.18 L283.04,185.28 L266.89,185.28 L262.64,201.43 L247,201.43 L247,164.88 L345.6,164.88 Z M697.92,176 L697.92,256.16 L707.52,258.56 L707.52,268.16 L681.96,269 L680.88,262.64 C679.2,264.32 673.08,270.2 662.76,270.2 C645.96,270.2 638.16,257.96 638.16,238.16 C638.16,215.6 648.96,203 670.92,203 C673.8,203 677.28,203.6 679.92,204.2 L679.92,188.96 L670.32,186.56 L670.32,176.96 L697.92,176 Z M746.52,203 C765.96,203 776.76,214.76 776.76,235.4 C776.76,257 764.16,270.2 744.72,270.2 C725.16,270.2 714.12,260 714.12,237.2 C714.12,215.6 726.96,203 746.52,203 Z M817.2,203 C835.08,203 844.44,214.04 844.44,231.2 C844.44,235.76 843.72,240.2 843.72,240.56 L803.88,240.56 C804.6,250.16 810.12,255.8 818.4,255.8 C828.36,255.8 838.56,250.16 838.56,250.16 L843.72,260.12 C843.72,260.12 831.72,270.2 816.36,270.2 C795.72,270.2 785.16,258.2 785.16,237.8 C785.16,216.8 797.04,203 817.2,203 Z M877.56,203 C888.36,203 899.88,206.6 899.88,206.6 L899.4,224.6 L889.2,224.6 L887.4,217.4 C887.4,217.4 883.92,216.2 879.12,216.2 C873.96,216.2 870.84,218.36 870.84,222.32 C870.84,232.04 902.88,227.84 902.88,248.6 C902.88,262.4 891.72,270.2 875.28,270.2 C863.88,270.2 853.2,267.56 853.2,267.56 L853.2,248 L864,248 L864.96,255.8 C864.96,255.8 869.16,257 875.04,257 C881.64,257 884.88,254.96 884.88,251.12 C884.88,241.28 852.84,244.88 852.84,223.52 C852.84,208.52 864.84,203 877.56,203 Z M1236.24,176 L1236.24,256.4 L1247.04,259.4 L1247.04,269 L1208.52,269 L1208.52,259.4 L1218.12,256.4 L1218.12,188.96 L1208.52,186.56 L1208.52,176.96 L1236.24,176 Z M1099.92,203 C1112.52,203 1118.4,211.16 1118.4,224.6 L1118.4,256.4 L1126.56,259.4 L1126.56,269 L1094.04,269 L1094.04,259.4 L1100.4,256.4 L1100.4,227.84 C1100.4,221.24 1098.48,218 1093.44,218 C1085.64,218 1080.12,224.24 1080.12,224.24 L1080.12,256.4 L1086.36,259.4 L1086.36,269 L1055.88,269 L1055.88,259.4 L1062.12,256.4 L1062.12,227.84 C1062.12,221.24 1060.44,218 1055.28,218 C1047.48,218 1041.84,224.24 1041.84,224.24 L1041.84,256.4 L1048.2,259.4 L1048.2,269 L1014.6,269 L1014.6,259.4 L1023.84,256.4 L1023.84,217.4 L1014.72,214.4 L1014.72,204.8 L1039.8,204.2 L1040.64,212.72 C1040.64,212.72 1051.08,203 1061.64,203 C1070.16,203 1075.44,206.96 1078.2,213.32 C1080.24,211.28 1089.24,203 1099.92,203 Z M998.4,204.2 L998.4,256.4 L1006.8,259.4 L1006.8,269 L970.8,269 L970.8,259.4 L980.4,256.4 L980.4,217.4 L970.8,214.4 L970.8,204.8 L998.4,204.2 Z M1170.72,217.4 C1162.92,217.4 1159.56,224 1159.56,224 L1159.56,254.6 C1161.48,255.44 1164.36,256.4 1168.92,256.4 C1179.24,256.4 1182.72,249.2 1182.72,236.96 C1182.72,224.84 1179.48,217.4 1170.72,217.4 Z M670.56,217.4 C660.36,217.4 656.76,225.2 656.76,237.2 C656.76,249.32 660.12,255.8 668.28,255.8 C675.96,255.8 679.92,248.96 679.92,248.96 L679.92,219.2 C677.64,218.12 674.04,217.4 670.56,217.4 Z M745.92,217.4 C737.16,217.4 732.72,222.2 732.72,236.6 C732.72,249.8 736.56,255.8 745.32,255.8 C753.96,255.8 758.16,250.4 758.16,236 C758.16,223.76 754.56,217.4 745.92,217.4 Z M425.53,154 C442.53,154 459.53,160.29 459.53,180.35 C459.53,206.53 428.93,216.05 428.93,231.86 C428.93,235.94 429.27,241.72 429.27,241.72 L406.66,242.74 C406.66,242.74 405.13,231.69 405.13,226.08 C405.13,209.59 433.86,200.75 433.86,185.11 C433.86,177.46 428.59,173.89 418.56,173.89 C411.25,173.89 403.43,175.76 403.43,175.76 L400.2,158.08 C400.2,158.08 414.31,154 425.53,154 Z M368.48,205 C377.83,205 382.59,210.61 382.59,220.47 C382.59,230.16 375.62,235.77 367.97,235.77 C358.62,235.77 353.69,230.16 353.69,220.47 C353.69,210.61 360.83,205 368.48,205 Z M816,217.4 C809.28,217.4 805.08,222.32 804.12,229.4 L825.84,229.4 C825.84,222.56 822.96,217.4 816,217.4 Z M988.56,173.6 C994.8,173.6 998.64,176.84 998.64,184.4 C998.64,191.48 993.48,195.32 988.56,195.32 C982.08,195.32 978.24,191.48 978.24,184.4 C978.24,177.56 983.16,173.6 988.56,173.6 Z M196.049747,173.875562 C193.94976,180.172414 197.449739,186.969015 203.749702,188.968016 C210.049665,191.066967 216.749626,187.568716 218.849614,181.271864 C220.949601,174.975012 217.449622,168.278361 211.149659,166.17941 C204.849696,164.08046 198.149735,167.578711 196.049747,173.875562 Z M494.747995,166.17941 C488.448032,168.278361 485.048052,174.975012 487.04804,181.271864 C489.048028,187.568716 495.847989,190.967016 502.147952,188.968016 C508.447915,186.969015 511.847895,180.172414 509.847906,173.875562 C507.847918,167.578711 501.047958,164.18041 494.747995,166.17941 Z M352.948827,59.9325337 C346.348866,59.9325337 340.948897,65.3298351 340.948897,71.9265367 C340.948897,78.5232384 346.348866,83.9205397 352.948827,83.9205397 C359.548788,83.9205397 364.948756,78.5232384 364.948756,71.9265367 C364.948756,65.3298351 359.548788,59.9325337 352.948827,59.9325337 Z" fill="#000000" fill-rule="nonzero"></path>
</svg>