<?xml version="1.0" encoding="UTF-8"?>
<svg width="400px" height="400px" viewBox="0 0 400 400" version="1.1" xmlns="http://www.w3.org/2000/svg" xmlns:xlink="http://www.w3.org/1999/xlink">
    <title>impls logo</title>
    <path d="M204.721285,2.3527452 L204.848798,2.54872564 L214.948739,19.0404798 L219.84871,19.5402299 L233.348631,5.04747626 C235.999524,2.20162646 241.34951,3.11336894 242.868187,6.74213967 L242.948575,6.94652674 L249.848534,25.4372814 L254.648506,26.8365817 L270.648412,15.3423288 C273.890498,13.083809 278.966492,15.1666088 279.712568,18.9368532 L279.748359,19.1404298 L282.94834,38.6306847 L287.348314,40.9295352 L305.348209,32.7336332 C308.984394,31.1620052 313.586388,34.1274369 313.554166,38.0249131 L313.54816,38.2308846 L312.848165,58.0209895 L316.648142,61.1194403 L335.84803,56.6216892 C339.779041,55.7376484 343.613472,59.5837337 342.890283,63.4165041 L342.847989,63.6181909 L338.348015,82.8085957 L341.447997,86.6066967 L361.247881,85.9070465 C365.277167,85.8088197 368.340645,90.2476526 366.831518,93.9108913 L366.747848,94.1029485 L358.547896,112.093953 L360.847883,116.491754 L380.347768,119.690155 C384.276317,120.377311 386.372127,125.306607 384.266765,128.607224 L384.147746,128.785607 L372.647814,144.777611 L374.047805,149.575212 L392.547697,156.471764 C396.180403,157.845623 397.306809,163.266119 394.601908,166.016885 L394.447686,166.166917 L380.04777,179.66017 L380.547767,184.557721 L397.347669,194.952524 C400.779021,197.010318 400.750186,202.430523 398.015018,204.620176 L397.847666,204.747626 L381.047764,215.142429 L380.547767,220.03998 L394.947683,233.533233 C397.89312,236.182818 396.886316,241.530161 393.252279,243.048088 L393.047694,243.128436 L374.547803,250.024988 L373.147811,254.822589 L384.647743,270.814593 C386.907379,274.055078 384.920072,279.128564 381.056523,279.874272 L380.847766,279.910045 L361.34788,283.108446 L359.047893,287.506247 L367.247845,305.497251 C368.82025,309.131641 365.853353,313.731363 361.953951,313.699156 L361.747878,313.693153 L341.947994,312.993503 L338.848012,316.791604 L343.347986,336.081959 C344.232463,339.912802 340.384477,343.743645 336.549813,343.020785 L336.348027,342.978511 L317.148139,338.48076 L313.348162,341.57921 L314.048157,361.369315 C314.146433,365.298385 309.608826,368.45519 306.035362,366.950107 L305.848206,366.866567 L287.848311,358.670665 L283.448337,360.969515 L280.248356,380.45977 C279.56086,384.386378 274.629129,386.481154 271.32688,384.376831 L271.148409,384.257871 L255.148503,372.763618 L250.348531,374.162919 L243.448572,392.653673 C242.074034,396.284585 236.747256,397.410435 233.998635,394.70687 L233.848628,394.552724 L220.348707,380.15992 L215.448736,380.65967 L205.048797,397.451274 C202.989986,400.782942 197.567103,400.848269 195.376367,397.647255 L195.248854,397.451274 L184.848915,380.65967 L179.948944,380.15992 L166.449023,394.552724 C163.79813,397.496706 158.448145,396.394051 156.929468,392.852902 L156.84908,392.653673 L149.94912,374.162919 L145.149148,372.763618 L129.149242,384.257871 C125.907156,386.516391 120.831162,384.530065 120.085087,380.668424 L120.049296,380.45977 L116.849314,360.969515 L112.44934,358.670665 L94.4494459,366.866567 C90.8132603,368.438195 86.2112659,365.472763 86.2434887,361.575287 L86.249494,361.369315 L86.9494899,341.57921 L83.1495122,338.48076 L63.9496248,342.978511 C60.115749,343.96107 56.1852349,340.1141 56.908102,336.280226 L56.9496659,336.081959 L61.4496395,316.791604 L58.3496577,312.993503 L38.5497738,313.693153 C34.6187624,313.79138 31.4603981,309.256014 32.9662243,305.684315 L33.0498061,305.497251 L41.249758,287.506247 L38.9497715,283.108446 L19.4498859,279.910045 C15.5200844,279.320866 13.4241902,274.293893 15.5329055,270.989909 L15.6499082,270.814593 L27.1498407,254.822589 L25.7498489,250.024988 L7.24995746,243.128436 C3.6172515,241.754577 2.49084489,236.430429 5.19574623,233.683167 L5.34996861,233.533233 L19.8498835,220.03998 L19.3498865,215.142429 L2.54998504,204.747626 C-0.783328738,202.689832 -0.848687831,197.269627 2.35390776,195.079974 L2.54998504,194.952524 L19.0498882,184.857571 L19.5498853,179.96002 L5.14996978,166.466767 C2.30271376,163.71905 3.31130289,158.369922 6.85072855,156.851963 L7.04995864,156.771614 L25.5498501,149.875062 L26.9498419,145.077461 L15.4499094,129.085457 C13.1902735,125.844972 15.177581,120.771486 19.0411299,120.025778 L19.2498871,119.990005 L38.7497727,116.791604 L41.0497592,112.393803 L32.8498073,94.4027986 C31.2774027,90.7684089 34.2442997,86.2652205 38.1437018,86.2058874 L38.349775,86.2068966 L58.1496588,86.9065467 L61.2496406,83.1084458 L56.749667,63.918041 C55.8651895,60.0871978 59.7131752,56.1598214 63.5478395,56.8793528 L63.749626,56.9215392 L82.9495133,61.4192904 L86.749491,58.3208396 L86.0494951,38.5307346 C85.9512199,34.6016647 90.488827,31.4448602 94.0622905,32.9499428 L94.249447,33.0334833 L112.249341,41.2293853 L116.649316,38.9305347 L119.849297,19.4402799 C120.438767,15.5124192 125.468224,13.4175602 128.773841,15.525234 L128.949243,15.6421789 L144.94915,27.1364318 L149.749121,25.7371314 L156.649081,7.24637681 C158.023618,3.61546499 163.350397,2.4896147 166.099017,5.19318012 L166.249025,5.34732634 L179.748945,19.84008 L184.648917,19.3403298 L195.048856,2.54872564 C197.107667,-0.782941862 202.53055,-0.848268676 204.721285,2.3527452 Z M224.848681,56.2218891 L207.048785,74.0129935 C203.219717,77.8401708 197.077141,77.9097559 193.163945,74.2217486 L192.948868,74.0129935 L175.148972,56.2218891 C130.302236,63.8410795 92.4141678,92.032084 71.4787903,130.708836 L70.8495843,131.884058 L82.2495174,154.272864 C84.7056434,159.084493 82.8183045,164.957334 78.1047501,167.531448 L77.8495433,167.666167 L55.4496835,179.06047 C54.4496835,185.857071 53.9496835,192.753623 53.9496835,199.850075 C53.9496835,239.034483 69.4351726,274.594333 94.8754791,300.807722 L95.6494388,301.5992 L120.449293,297.701149 C125.757737,296.816846 130.776265,300.37571 131.799863,305.719044 L131.849226,305.997001 L135.749204,330.884558 C155.14909,340.47976 177.048961,345.877061 200.148826,345.877061 C222.887755,345.877061 244.463898,340.647108 263.637252,331.331254 L264.548448,330.884558 L268.448425,305.997001 C269.235087,300.689655 274.179586,296.928647 279.573711,297.660072 L279.848358,297.701149 L304.648213,301.5992 C330.148063,275.312344 345.94797,239.430285 346.04797,199.850075 C346.04797,193.22672 345.612417,186.7775 344.741311,180.421152 L344.547979,179.06047 L322.14811,167.666167 C317.235858,165.211254 315.315771,159.379759 317.620613,154.53162 L317.748136,154.272864 L329.148069,131.884058 C308.348191,92.6036982 270.148415,64.017991 224.848681,56.2218891 Z M282.748341,313.793103 C277.348373,317.691154 276.14838,325.187406 280.048357,330.584708 C283.948334,335.982009 291.44829,337.181409 296.848258,333.283358 C302.248227,329.385307 303.44822,321.889055 299.548243,316.491754 C295.648265,311.194403 288.148309,309.995002 282.748341,313.793103 Z M100.249412,316.491754 C96.3494347,321.889055 97.5494277,329.385307 102.949396,333.283358 C108.349364,337.181409 115.84932,335.982009 119.749297,330.584708 C123.649275,325.287356 122.449282,317.691154 117.049313,313.793103 C111.649345,309.895052 104.149389,311.094453 100.249412,316.491754 Z M266.75,231.17 C276.1,231.17 281.03,236.78 281.03,246.47 C281.03,256.33 273.89,261.94 266.24,261.94 C256.89,261.94 252.13,256.33 252.13,246.47 C252.13,236.78 259.1,231.17 266.75,231.17 Z M215.48,231.17 C224.83,231.17 229.59,236.78 229.59,246.47 C229.59,256.33 222.62,261.94 214.97,261.94 C205.62,261.94 200.69,256.33 200.69,246.47 C200.69,236.78 207.83,231.17 215.48,231.17 Z M192.6,139.88 L192.6,176.43 L176.79,176.43 L172.54,160.28 L156.39,160.28 L156.39,240.18 L172.54,245.28 L172.54,259.73 L113.89,259.73 L113.89,245.28 L130.04,240.18 L130.04,160.28 L113.89,160.28 L109.64,176.43 L94,176.43 L94,139.88 L192.6,139.88 Z M272.53,129 C289.53,129 306.53,135.29 306.53,155.35 C306.53,181.53 275.93,191.05 275.93,206.86 C275.93,210.94 276.27,216.72 276.27,216.72 L253.66,217.74 C253.66,217.74 252.13,206.69 252.13,201.08 C252.13,184.59 280.86,175.75 280.86,160.11 C280.86,152.46 275.59,148.89 265.56,148.89 C258.25,148.89 250.43,150.76 250.43,150.76 L247.2,133.08 C247.2,133.08 261.31,129 272.53,129 Z M215.48,180 C224.83,180 229.59,185.61 229.59,195.47 C229.59,205.16 222.62,210.77 214.97,210.77 C205.62,210.77 200.69,205.16 200.69,195.47 C200.69,185.61 207.83,180 215.48,180 Z M43.0497474,148.875562 C40.9497597,155.172414 44.4497392,161.969015 50.7497023,163.968016 C57.0496653,166.066967 63.749626,162.568716 65.8496137,156.271864 C67.9496013,149.975012 64.4496219,143.278361 58.1496588,141.17941 C51.8496958,139.08046 45.1497351,142.578711 43.0497474,148.875562 Z M341.747995,141.17941 C335.448032,143.278361 332.048052,149.975012 334.04804,156.271864 C336.048028,162.568716 342.847989,165.967016 349.147952,163.968016 C355.447915,161.969015 358.847895,155.172414 356.847906,148.875562 C354.847918,142.578711 348.047958,139.18041 341.747995,141.17941 Z M199.948827,34.9325337 C193.348866,34.9325337 187.948897,40.3298351 187.948897,46.9265367 C187.948897,53.5232384 193.348866,58.9205397 199.948827,58.9205397 C206.548788,58.9205397 211.948756,53.5232384 211.948756,46.9265367 C211.948756,40.3298351 206.548788,34.9325337 199.948827,34.9325337 Z" fill="#000000" fill-rule="nonzero"></path>
</svg>