<?xml version="1.0" encoding="UTF-8"?>
<svg width="200px" height="84px" viewBox="0 0 200 84" version="1.1" xmlns="http://www.w3.org/2000/svg" xmlns:xlink="http://www.w3.org/1999/xlink">
    <title>run</title>
    <path d="M30.7666224,3 C21.465717,3 17.6434683,3.73811027 13.6926481,5.85103204 C10.3043424,7.66311775 7.66311775,10.3043424 5.85103204,13.6926481 C3.73811027,17.6434683 3,21.465717 3,30.7666224 L3,53.2333776 C3,62.534283 3.73811027,66.3565317 5.85103204,70.3073519 C7.66311775,73.6956576 10.3043424,76.3368822 13.6926481,78.148968 C17.6434683,80.2618897 21.465717,81 30.7666224,81 L169.233378,81 C178.534283,81 182.356532,80.2618897 186.307352,78.148968 C189.695658,76.3368822 192.336882,73.6956576 194.148968,70.3073519 C196.26189,66.3565317 197,62.534283 197,53.2333776 L197,30.7666224 C197,21.465717 196.26189,17.6434683 194.148968,13.6926481 C192.336882,10.3043424 189.695658,7.66311775 186.307352,5.85103204 C182.356532,3.73811027 178.534283,3 169.233378,3 L30.7666224,3 Z" id="Rectangle" stroke="#009966" stroke-width="6" fill="#00CC66"></path>
    <path d="M84.9230769,26.238806 L84.9230769,32.5671642 C87.090301,28.2686567 90.9431438,26 96,26 L96,32.5671642 C89.5585284,32.2089552 85.4648829,35.9701493 84.9230769,41.4029851 L84.9230769,58 L78,58 L78,26.238806 L84.9230769,26.238806 Z M133,26.24 L133,58.001194 L126.1,58.001194 L126.1,51.7922388 C123.94,56.2101493 119.92,58.1802985 114.7,58.24 C107.38,58.24 103,53.5832836 103,46.001194 L103,26.24 L109.9,26.24 L109.9,44.0907463 C109.9,48.8668657 112.72,51.7922388 117.34,51.7922388 C122.86,51.6728358 126.1,47.4340299 126.1,41.881791 L126.1,26.24 L133,26.24 Z M158.330059,26 C165.638507,26 170,30.6567164 170,38.238806 L170,58 L163.222004,58 L163.222004,40.1492537 C163.222004,35.3731343 160.392927,32.4477612 155.6778,32.4477612 C150.491159,32.5074627 147.249509,36.1492537 146.777996,41.1044776 L146.777996,58 L140,58 L140,26.238806 L146.777996,26.238806 L146.777996,32.3283582 C149.017682,27.9104478 153.02554,26 158.330059,26 Z" id="run" fill="#FFFFFF" fill-rule="nonzero"></path>
    <polygon fill="#FFFFFF" points="63 42 30 61 30 23"></polygon>
</svg>