<?xml version="1.0" encoding="UTF-8"?>
<svg width="210px" height="90px" viewBox="0 0 210 90" version="1.1" xmlns="http://www.w3.org/2000/svg" xmlns:xlink="http://www.w3.org/1999/xlink">
    <title>run</title>
    <path d="M39.7666224,6 C30.465717,6 26.6434683,6.73811027 22.6926481,8.85103204 C19.3043424,10.6631178 16.6631178,13.3043424 14.851032,16.6926481 C12.7381103,20.6434683 12,24.465717 12,33.7666224 L12,56.2333776 C12,65.534283 12.7381103,69.3565317 14.851032,73.3073519 C16.6631178,76.6956576 19.3043424,79.3368822 22.6926481,81.148968 C26.6434683,83.2618897 30.465717,84 39.7666224,84 L170.233378,84 C179.534283,84 183.356532,83.2618897 187.307352,81.148968 C190.695658,79.3368822 193.336882,76.6956576 195.148968,73.3073519 C197.26189,69.3565317 198,65.534283 198,56.2333776 L198,33.7666224 C198,24.465717 197.26189,20.6434683 195.148968,16.6926481 C193.336882,13.3043424 190.695658,10.6631178 187.307352,8.85103204 C183.356532,6.73811027 179.534283,6 170.233378,6 L39.7666224,6 Z" stroke="#009966" stroke-width="6" fill="#00CC66"></path>
    <path d="M89.9230769,29.2370283 L89.9230769,35.5182771 C92.090301,31.2517685 95.9431438,29 101,29 L101,35.5182771 C94.5585284,35.1627347 90.4648829,38.8959298 89.9230769,44.2883227 L89.9230769,60.7617866 L83,60.7617866 L83,29.2370283 L89.9230769,29.2370283 Z M138,29.2382134 L138,60.7629717 L131.1,60.7629717 L131.1,54.600237 C128.94,58.9852598 124.92,60.9407429 119.7,61 C112.38,61 108,56.377949 108,48.8523018 L108,29.2382134 L114.9,29.2382134 L114.9,46.9560757 C114.9,51.6966409 117.72,54.600237 122.34,54.600237 C127.86,54.4817229 131.1,50.2744713 131.1,44.7635643 L131.1,29.2382134 L138,29.2382134 Z M163.330059,29 C170.638507,29 175,33.622051 175,41.1476982 L175,60.7617866 L168.222004,60.7617866 L168.222004,43.0439243 C168.222004,38.3033591 165.392927,35.399763 160.6778,35.399763 C155.491159,35.45902 152.249509,39.073701 151.777996,43.9920373 L151.777996,60.7617866 L145,60.7617866 L145,29.2370283 L151.777996,29.2370283 L151.777996,35.2812488 C154.017682,30.8962261 158.02554,29 163.330059,29 Z" fill="#FFFFFF" fill-rule="nonzero"></path>
    <polygon id="Polygon-Copy-2" fill="#FFFFFF" points="68 45 35 64 35 26"></polygon>
</svg>